# This file uses centimeters as units for non-parametric coordinates.

g default
v 2.264873 4.665273 -2.330657
v 2.264873 4.665273 1.719262
v 2.264873 0.036794 1.719262
v 2.264873 0.036794 -2.330657
v 0.478859 1.624362 1.719262
v 0.228342 1.496501 1.719262
v -0.776038 1.822808 -2.330657
v -0.903899 2.073325 -2.330657
v -0.577592 1.624362 -2.330657
v -2.363606 4.665273 1.719262
v -2.363606 4.665273 -2.330657
v -2.363606 0.036794 -2.330657
v -2.363606 0.036794 1.719262
v 0.228342 3.205567 -2.330657
v -0.049366 1.453109 1.719262
v 0.805167 2.628742 1.719262
v -0.327075 1.496501 1.719262
v 0.849137 2.351034 1.719262
v 0.478859 3.077705 -2.330657
v -0.947291 2.351034 -2.330657
v 0.805167 2.073325 1.719262
v -0.903899 2.628742 -2.330657
v 0.677305 1.822808 1.719262
v 0.805167 2.628742 -2.330657
v 0.849137 2.351034 -2.330657
v 0.805167 2.073325 -2.330657
v 0.677305 1.822808 -2.330657
v 0.677305 2.879259 -2.330657
v -0.049366 3.249537 -2.330657
v -0.049366 1.453109 -2.330657
v -0.577592 1.624362 1.719262
v 0.478859 1.624362 -2.330657
v -0.776038 1.822808 1.719262
v 0.228342 1.496501 -2.330657
v -0.903899 2.073325 1.719262
v -0.327075 1.496501 -2.330657
v -0.947291 2.351034 1.719262
v -0.776038 2.879259 -2.330657
v -0.903899 2.628742 1.719262
v -0.577592 3.077705 -2.330657
v -0.327075 3.205567 -2.330657
v -0.776038 2.879259 1.719262
v -0.577592 3.077705 1.719262
v -0.327075 3.205567 1.719262
v -0.049366 3.249537 1.719262
v 0.228342 3.205567 1.719262
v 0.478859 3.077705 1.719262
v 0.677305 2.879259 1.719262
vn 1.000000 0.000000 0.000000
vn 1.000000 0.000000 0.000000
vn 1.000000 0.000000 0.000000
vn 1.000000 0.000000 0.000000
vn 1.000000 0.000000 0.000000
vn 1.000000 0.000000 0.000000
vn -1.000000 0.000000 0.000000
vn -1.000000 0.000000 0.000000
vn -1.000000 0.000000 0.000000
vn -1.000000 0.000000 0.000000
vn -1.000000 0.000000 0.000000
vn -1.000000 0.000000 0.000000
vn 0.000000 0.000000 -1.000000
vn 0.000000 0.000000 -1.000000
vn 0.000000 0.000000 -1.000000
vn 0.000000 0.000000 -1.000000
vn 0.000000 0.000000 -1.000000
vn 0.000000 0.000000 -1.000000
vn 0.988012 -0.154377 0.000000
vn 0.988012 -0.154377 0.000000
vn 0.988012 -0.154377 0.000000
vn -0.154379 0.988012 0.000000
vn -0.154379 0.988012 0.000000
vn -0.154379 0.988012 0.000000
vn -0.154378 0.988012 0.000000
vn -0.154378 0.988012 0.000000
vn -0.154378 0.988012 0.000000
vn 0.707108 0.707105 0.000000
vn 0.707108 0.707105 0.000000
vn 0.707108 0.707105 0.000000
vn 0.000000 0.000000 -1.000000
vn 0.000000 0.000000 -1.000000
vn 0.000000 0.000000 -1.000000
vn -0.156386 -0.987696 0.000000
vn -0.156386 -0.987696 0.000000
vn -0.156386 -0.987696 0.000000
vn 0.890694 0.454604 0.000000
vn 0.890694 0.454604 0.000000
vn 0.890694 0.454604 0.000000
vn 0.890694 0.454602 0.000000
vn 0.890694 0.454602 0.000000
vn 0.890694 0.454602 0.000000
vn 0.000000 0.000000 -1.000000
vn 0.000000 0.000000 -1.000000
vn 0.000000 0.000000 -1.000000
vn -0.454605 -0.890693 0.000000
vn -0.454605 -0.890693 0.000000
vn -0.454605 -0.890693 0.000000
vn -0.890693 -0.454606 0.000000
vn -0.890693 -0.454606 0.000000
vn -0.890693 -0.454606 0.000000
vn 0.988012 0.154377 0.000000
vn 0.988012 0.154377 0.000000
vn 0.988012 0.154377 0.000000
vn 0.988012 0.154375 0.000000
vn 0.988012 0.154375 0.000000
vn 0.988012 0.154375 0.000000
vn 0.000000 0.000000 -1.000000
vn 0.000000 0.000000 -1.000000
vn 0.000000 0.000000 -1.000000
vn 0.000000 0.000000 -1.000000
vn 0.000000 0.000000 -1.000000
vn 0.000000 0.000000 -1.000000
vn -0.707107 -0.707106 0.000000
vn -0.707107 -0.707106 0.000000
vn -0.707107 -0.707106 0.000000
vn -0.987696 -0.156385 0.000000
vn -0.987696 -0.156385 0.000000
vn -0.987696 -0.156385 0.000000
vn 0.000000 0.000000 -1.000000
vn 0.000000 0.000000 -1.000000
vn 0.000000 0.000000 -1.000000
vn 0.000000 0.000000 -1.000000
vn 0.000000 0.000000 -1.000000
vn 0.000000 0.000000 -1.000000
vn 0.000000 0.000000 -1.000000
vn 0.000000 0.000000 -1.000000
vn 0.000000 0.000000 -1.000000
vn 0.000000 0.000000 -1.000000
vn 0.000000 0.000000 -1.000000
vn 0.000000 0.000000 -1.000000
vn 0.988012 -0.154375 0.000000
vn 0.988012 -0.154375 0.000000
vn 0.988012 -0.154375 0.000000
vn 0.000000 0.000000 -1.000000
vn 0.000000 0.000000 -1.000000
vn 0.000000 0.000000 -1.000000
vn 0.000000 0.000000 -1.000000
vn 0.000000 0.000000 -1.000000
vn 0.000000 0.000000 -1.000000
vn 0.000000 0.000000 -1.000000
vn 0.000000 0.000000 -1.000000
vn 0.000000 0.000000 -1.000000
vn 0.154378 0.988012 0.000000
vn 0.154378 0.988012 0.000000
vn 0.154378 0.988012 0.000000
vn 0.000000 0.000000 -1.000000
vn 0.000000 0.000000 -1.000000
vn 0.000000 0.000000 -1.000000
vn 0.000000 0.000000 -1.000000
vn 0.000000 0.000000 -1.000000
vn 0.000000 0.000000 -1.000000
vn 0.000000 0.000000 -1.000000
vn 0.000000 0.000000 -1.000000
vn 0.000000 0.000000 -1.000000
vn 0.000000 0.000000 -1.000000
vn 0.000000 0.000000 -1.000000
vn 0.000000 0.000000 -1.000000
vn 0.000000 0.000000 -1.000000
vn 0.000000 0.000000 -1.000000
vn 0.000000 0.000000 -1.000000
vn 0.000000 -1.000000 0.000000
vn 0.000000 -1.000000 0.000000
vn 0.000000 -1.000000 0.000000
vn 0.000000 -1.000000 0.000000
vn 0.000000 -1.000000 0.000000
vn 0.000000 -1.000000 0.000000
vn -0.707108 0.707105 0.000000
vn -0.707108 0.707105 0.000000
vn -0.707108 0.707105 0.000000
vn 0.000000 1.000000 0.000000
vn 0.000000 1.000000 0.000000
vn 0.000000 1.000000 0.000000
vn -0.454602 0.890695 0.000000
vn -0.454602 0.890695 0.000000
vn -0.454602 0.890695 0.000000
vn 0.000000 1.000000 0.000000
vn 0.000000 1.000000 0.000000
vn 0.000000 1.000000 0.000000
vn -0.987696 -0.156385 0.000000
vn -0.987696 -0.156385 0.000000
vn -0.987696 -0.156385 0.000000
vn 0.154378 0.988012 0.000000
vn 0.154378 0.988012 0.000000
vn 0.154378 0.988012 0.000000
vn -0.987696 0.156385 0.000000
vn -0.987696 0.156385 0.000000
vn -0.987696 0.156385 0.000000
vn -0.987696 0.156385 0.000000
vn -0.987696 0.156385 0.000000
vn -0.987696 0.156385 0.000000
vn 0.890694 -0.454604 0.000000
vn 0.890694 -0.454604 0.000000
vn 0.890694 -0.454604 0.000000
vn 0.454602 0.890695 0.000000
vn 0.454602 0.890695 0.000000
vn 0.454602 0.890695 0.000000
vn 0.454602 0.890695 0.000000
vn 0.454602 0.890695 0.000000
vn 0.454602 0.890695 0.000000
vn 0.707105 -0.707109 0.000000
vn 0.707105 -0.707109 0.000000
vn 0.707105 -0.707109 0.000000
vn 0.707106 0.707108 0.000000
vn 0.707106 0.707108 0.000000
vn 0.707106 0.707108 0.000000
vn 0.454605 -0.890693 0.000000
vn 0.454605 -0.890693 0.000000
vn 0.454605 -0.890693 0.000000
vn 0.454605 -0.890693 0.000000
vn 0.454605 -0.890693 0.000000
vn 0.454605 -0.890693 0.000000
vn 0.000000 0.000000 -1.000000
vn 0.000000 0.000000 -1.000000
vn 0.000000 0.000000 -1.000000
vn 0.000000 0.000000 -1.000000
vn 0.000000 0.000000 -1.000000
vn 0.000000 0.000000 -1.000000
vn 0.000000 0.000000 1.000000
vn 0.000000 0.000000 1.000000
vn 0.000000 0.000000 1.000000
vn 0.000000 0.000000 -1.000000
vn 0.000000 0.000000 -1.000000
vn 0.000000 0.000000 -1.000000
vn 0.156386 -0.987696 0.000000
vn 0.156386 -0.987696 0.000000
vn 0.156386 -0.987696 0.000000
vn 0.156386 -0.987696 0.000000
vn 0.156386 -0.987696 0.000000
vn 0.156386 -0.987696 0.000000
vn 0.890694 -0.454602 0.000000
vn 0.890694 -0.454602 0.000000
vn 0.890694 -0.454602 0.000000
vn 0.000000 0.000000 -1.000000
vn 0.000000 0.000000 -1.000000
vn 0.000000 0.000000 -1.000000
vn -0.156386 -0.987696 0.000000
vn -0.156386 -0.987696 0.000000
vn -0.156386 -0.987696 0.000000
vn 0.707107 -0.707106 0.000000
vn 0.707107 -0.707106 0.000000
vn 0.707107 -0.707106 0.000000
vn -0.000001 0.000000 1.000000
vn -0.000001 0.000000 1.000000
vn -0.000001 0.000000 1.000000
vn 0.000000 0.000000 1.000000
vn 0.000000 0.000000 1.000000
vn 0.000000 0.000000 1.000000
vn 0.000000 0.000000 -1.000000
vn 0.000000 0.000000 -1.000000
vn 0.000000 0.000000 -1.000000
vn 0.000000 0.000000 1.000000
vn 0.000000 0.000000 1.000000
vn 0.000000 0.000000 1.000000
vn -0.890693 0.454606 0.000000
vn -0.890693 0.454606 0.000000
vn -0.890693 0.454606 0.000000
vn -0.890694 0.454602 0.000000
vn -0.890694 0.454602 0.000000
vn -0.890694 0.454602 0.000000
vn 0.000000 0.000000 1.000000
vn 0.000000 0.000000 1.000000
vn 0.000000 0.000000 1.000000
vn 0.000000 0.000000 1.000000
vn 0.000000 0.000000 1.000000
vn 0.000000 0.000000 1.000000
vn -0.707106 0.707108 0.000000
vn -0.707106 0.707108 0.000000
vn -0.707106 0.707108 0.000000
vn -0.454604 -0.890694 0.000000
vn -0.454604 -0.890694 0.000000
vn -0.454604 -0.890694 0.000000
vn 0.000000 0.000000 1.000000
vn 0.000000 0.000000 1.000000
vn 0.000000 0.000000 1.000000
vn -0.707105 -0.707109 0.000000
vn -0.707105 -0.707109 0.000000
vn -0.707105 -0.707109 0.000000
vn 0.000000 0.000000 1.000000
vn 0.000000 0.000000 1.000000
vn 0.000000 0.000000 1.000000
vn 0.000001 0.000000 1.000000
vn 0.000001 0.000000 1.000000
vn 0.000001 0.000000 1.000000
vn -0.454601 0.890695 0.000000
vn -0.454601 0.890695 0.000000
vn -0.454601 0.890695 0.000000
vn -0.890694 -0.454602 0.000000
vn -0.890694 -0.454602 0.000000
vn -0.890694 -0.454602 0.000000
vn 0.000000 0.000000 1.000000
vn 0.000000 0.000000 1.000000
vn 0.000000 0.000000 1.000000
vn 0.000000 0.000000 1.000000
vn 0.000000 0.000000 1.000000
vn 0.000000 0.000000 1.000000
vn 0.000000 0.000000 1.000000
vn 0.000000 0.000000 1.000000
vn 0.000000 0.000000 1.000000
vn 0.000000 0.000000 1.000000
vn 0.000000 0.000000 1.000000
vn 0.000000 0.000000 1.000000
vn 0.000000 0.000000 1.000000
vn 0.000000 0.000000 1.000000
vn 0.000000 0.000000 1.000000
vn 0.000000 0.000000 1.000000
vn 0.000000 0.000000 1.000000
vn 0.000000 0.000000 1.000000
vn 0.000000 0.000000 1.000000
vn 0.000000 0.000000 1.000000
vn 0.000000 0.000000 1.000000
vn 0.000000 0.000000 1.000000
vn 0.000000 0.000000 1.000000
vn 0.000000 0.000000 1.000000
vn 0.000000 0.000000 1.000000
vn 0.000000 0.000000 1.000000
vn 0.000000 0.000000 1.000000
vn 0.000000 0.000000 1.000000
vn 0.000000 0.000000 1.000000
vn 0.000000 0.000000 1.000000
vn 0.000000 0.000000 1.000000
vn 0.000000 0.000000 1.000000
vn 0.000000 0.000000 1.000000
vn 0.000000 0.000000 1.000000
vn 0.000000 0.000000 1.000000
vn 0.000000 0.000000 1.000000
vn 0.000000 0.000000 1.000000
vn 0.000000 0.000000 1.000000
vn 0.000000 0.000000 1.000000
vn 0.000000 0.000000 1.000000
vn 0.000000 0.000000 1.000000
vn 0.000000 0.000000 1.000000
vn 0.000000 0.000000 1.000000
vn 0.000000 0.000000 1.000000
vn 0.000000 0.000000 1.000000
vn 0.000000 0.000000 -1.000000
vn 0.000000 0.000000 -1.000000
vn 0.000000 0.000000 -1.000000
s off
g group_15277357
f 3//1 1//2 2//3
f 1//4 3//5 4//6
f 10//7 11//8 12//9
f 10//10 12//11 13//12
f 9//13 12//14 7//15
f 8//16 7//17 12//18
f 22//19 39//20 20//21
f 6//22 34//23 30//24
f 6//25 30//26 15//27
f 7//28 33//29 31//30
f 29//31 1//32 14//33
f 14//34 46//35 45//36
f 8//37 35//38 33//39
f 8//40 33//41 7//42
f 28//43 19//44 1//45
f 19//46 47//47 14//48
f 24//49 16//50 28//51
f 37//52 35//53 8//54
f 37//55 8//56 20//57
f 1//58 19//59 14//60
f 41//61 11//62 29//63
f 47//64 19//65 28//66
f 16//67 24//68 25//69
f 26//70 25//71 4//72
f 1//73 4//74 25//75
f 1//76 25//77 24//78
f 24//79 28//80 1//81
f 20//82 39//83 37//84
f 9//85 36//86 12//87
f 4//88 12//89 30//90
f 30//91 34//92 4//93
f 30//94 17//95 15//96
f 38//97 11//98 40//99
f 12//100 11//101 20//102
f 20//103 8//104 12//105
f 22//106 20//107 11//108
f 1//109 29//110 11//111
f 13//112 12//113 4//114
f 13//115 4//116 3//117
f 27//118 32//119 5//120
f 2//121 1//122 10//123
f 5//124 32//125 34//126
f 10//127 1//128 11//129
f 25//130 18//131 16//132
f 30//133 36//134 17//135
f 26//136 21//137 25//138
f 18//139 25//140 21//141
f 38//142 39//143 22//144
f 17//145 36//146 9//147
f 31//148 17//149 9//150
f 43//151 38//152 40//153
f 31//154 9//155 7//156
f 43//157 40//158 44//159
f 41//160 44//161 40//162
f 27//163 26//164 4//165
f 32//166 27//167 4//168
f 6//169 3//170 5//171
f 34//172 32//173 4//174
f 41//175 29//176 44//177
f 45//178 44//179 29//180
f 38//181 42//182 39//183
f 22//184 11//185 38//186
f 14//187 45//188 29//189
f 43//190 42//191 38//192
f 43//193 10//194 42//195
f 42//196 10//197 39//198
f 40//199 11//200 41//201
f 44//202 10//203 43//204
f 21//205 26//206 27//207
f 21//208 27//209 23//210
f 2//211 10//212 45//213
f 13//214 31//215 33//216
f 27//217 5//218 23//219
f 47//220 46//221 14//222
f 35//223 13//224 33//225
f 28//226 48//227 47//228
f 37//229 13//230 35//231
f 48//232 2//233 47//234
f 34//235 6//236 5//237
f 16//238 48//239 28//240
f 46//241 2//242 45//243
f 47//244 2//245 46//246
f 44//247 45//248 10//249
f 16//250 2//251 48//252
f 2//253 18//254 3//255
f 18//256 2//257 16//258
f 18//259 21//260 3//261
f 13//262 3//263 15//264
f 17//265 13//266 15//267
f 31//268 13//269 17//270
f 6//271 15//272 3//273
f 23//274 3//275 21//276
f 39//277 10//278 37//279
f 13//280 37//281 10//282
f 5//283 3//284 23//285
f 12//286 36//287 30//288
